<svg xmlns="http://www.w3.org/2000/svg" xmlns:xlink="http://www.w3.org/1999/xlink" width="794" zoomAndPan="magnify" viewBox="0 0 595.5 842.249979" height="1123" preserveAspectRatio="xMidYMid meet" version="1.2"><defs><clipPath id="650791cf6d"><path d="M 23.167969 178.632812 L 562.890625 178.632812 L 562.890625 718.355469 L 23.167969 718.355469 Z M 23.167969 178.632812 "/></clipPath></defs><g id="db3fd6419a"><path style=" stroke:none;fill-rule:nonzero;fill:#f4b2b0;fill-opacity:1;" d="M 118.925781 187.335938 L 467.132812 187.335938 L 467.132812 431.082031 L 118.925781 431.082031 Z M 118.925781 187.335938 "/><path style=" stroke:none;fill-rule:nonzero;fill:#b3404a;fill-opacity:1;" d="M 423.605469 213.453125 L 441.015625 213.453125 L 441.015625 230.863281 L 423.605469 230.863281 Z M 423.605469 213.453125 "/><path style=" stroke:none;fill-rule:nonzero;fill:#b3404a;fill-opacity:1;" d="M 388.785156 213.453125 L 406.195312 213.453125 L 406.195312 230.863281 L 388.785156 230.863281 Z M 388.785156 213.453125 "/><path style=" stroke:none;fill-rule:nonzero;fill:#b3404a;fill-opacity:1;" d="M 353.964844 213.453125 L 371.375 213.453125 L 371.375 230.863281 L 353.964844 230.863281 Z M 353.964844 213.453125 "/><g clip-rule="nonzero" clip-path="url(#650791cf6d)"><path style=" stroke:none;fill-rule:nonzero;fill:#b3404a;fill-opacity:1;" d="M 554.183594 631.304688 L 545.480469 631.304688 L 545.480469 344.03125 C 545.480469 329.632812 533.761719 317.914062 519.363281 317.914062 L 475.839844 317.914062 L 475.839844 187.335938 C 475.839844 182.53125 471.9375 178.632812 467.132812 178.632812 L 118.925781 178.632812 C 114.121094 178.632812 110.21875 182.53125 110.21875 187.335938 L 110.21875 317.914062 L 66.695312 317.914062 C 52.296875 317.914062 40.578125 329.632812 40.578125 344.03125 L 40.578125 631.304688 L 31.871094 631.304688 C 27.066406 631.304688 23.167969 635.203125 23.167969 640.007812 L 23.167969 674.828125 C 23.167969 698.828125 42.691406 718.355469 66.695312 718.355469 L 519.363281 718.355469 C 543.363281 718.355469 562.890625 698.828125 562.890625 674.828125 L 562.890625 640.007812 C 562.890625 635.203125 558.992188 631.304688 554.183594 631.304688 Z M 118.925781 439.789062 L 467.132812 439.789062 C 471.9375 439.789062 475.839844 435.890625 475.839844 431.082031 L 475.839844 370.148438 L 493.25 370.148438 L 493.25 596.484375 L 92.808594 596.484375 L 92.808594 370.148438 L 110.21875 370.148438 L 110.21875 431.082031 C 110.21875 435.890625 114.121094 439.789062 118.925781 439.789062 Z M 127.628906 265.683594 L 458.429688 265.683594 L 458.429688 422.378906 L 127.628906 422.378906 Z M 458.429688 196.042969 L 458.429688 248.273438 L 127.628906 248.273438 L 127.628906 196.042969 Z M 57.988281 344.03125 C 57.988281 339.234375 61.898438 335.328125 66.695312 335.328125 L 110.21875 335.328125 L 110.21875 352.738281 L 84.105469 352.738281 C 79.296875 352.738281 75.398438 356.636719 75.398438 361.441406 L 75.398438 605.1875 C 75.398438 609.992188 79.296875 613.894531 84.105469 613.894531 L 501.953125 613.894531 C 506.757812 613.894531 510.660156 609.992188 510.660156 605.1875 L 510.660156 361.441406 C 510.660156 356.636719 506.757812 352.738281 501.953125 352.738281 L 475.839844 352.738281 L 475.839844 335.328125 L 519.363281 335.328125 C 524.160156 335.328125 528.070312 339.234375 528.070312 344.03125 L 528.070312 631.304688 L 57.988281 631.304688 Z M 545.480469 674.828125 C 545.480469 689.226562 533.761719 700.945312 519.363281 700.945312 L 66.695312 700.945312 C 52.296875 700.945312 40.578125 689.226562 40.578125 674.828125 L 40.578125 648.714844 L 545.480469 648.714844 Z M 545.480469 674.828125 "/></g><path style=" stroke:none;fill-rule:nonzero;fill:#b3404a;fill-opacity:1;" d="M 510.660156 666.125 L 528.070312 666.125 L 528.070312 683.535156 L 510.660156 683.535156 Z M 510.660156 666.125 "/><path style=" stroke:none;fill-rule:nonzero;fill:#b3404a;fill-opacity:1;" d="M 475.839844 666.125 L 493.25 666.125 L 493.25 683.535156 L 475.839844 683.535156 Z M 475.839844 666.125 "/><path style=" stroke:none;fill-rule:nonzero;fill:#b3404a;fill-opacity:1;" d="M 441.015625 666.125 L 458.429688 666.125 L 458.429688 683.535156 L 441.015625 683.535156 Z M 441.015625 666.125 "/><path style=" stroke:none;fill-rule:nonzero;fill:#b3404a;fill-opacity:1;" d="M 223.386719 291.800781 C 223.386719 288.046875 220.992188 284.730469 217.433594 283.539062 C 213.890625 282.363281 209.964844 283.582031 207.71875 286.578125 L 155.488281 356.21875 C 153.5 358.855469 153.1875 362.382812 154.660156 365.332031 C 156.128906 368.285156 159.152344 370.148438 162.449219 370.148438 L 205.976562 370.148438 L 205.976562 404.96875 L 223.386719 404.96875 L 223.386719 370.148438 L 240.796875 370.148438 L 240.796875 352.738281 L 223.386719 352.738281 Z M 205.976562 352.738281 L 179.859375 352.738281 L 205.976562 317.914062 Z M 205.976562 352.738281 "/><path style=" stroke:none;fill-rule:nonzero;fill:#b3404a;fill-opacity:1;" d="M 414.902344 291.800781 C 414.902344 288.046875 412.507812 284.730469 408.949219 283.539062 C 405.394531 282.363281 401.488281 283.582031 399.234375 286.578125 L 347 356.21875 C 345.015625 358.855469 344.703125 362.382812 346.175781 365.332031 C 347.644531 368.285156 350.667969 370.148438 353.964844 370.148438 L 397.492188 370.148438 L 397.492188 404.96875 L 414.902344 404.96875 L 414.902344 370.148438 L 432.3125 370.148438 L 432.3125 352.738281 L 414.902344 352.738281 Z M 397.492188 352.738281 L 371.375 352.738281 L 397.492188 317.914062 Z M 397.492188 352.738281 "/><path style=" stroke:none;fill-rule:nonzero;fill:#b3404a;fill-opacity:1;" d="M 293.027344 283.09375 C 273.824219 283.09375 258.207031 298.710938 258.207031 317.914062 L 258.207031 370.148438 C 258.207031 389.351562 273.824219 404.96875 293.027344 404.96875 C 312.234375 404.96875 327.851562 389.351562 327.851562 370.148438 L 327.851562 317.914062 C 327.851562 298.710938 312.234375 283.09375 293.027344 283.09375 Z M 310.4375 370.148438 C 310.4375 379.75 302.628906 387.558594 293.027344 387.558594 C 283.425781 387.558594 275.617188 379.75 275.617188 370.148438 L 275.617188 317.914062 C 275.617188 308.3125 283.425781 300.503906 293.027344 300.503906 C 302.628906 300.503906 310.4375 308.3125 310.4375 317.914062 Z M 310.4375 370.148438 "/><path style=" stroke:none;fill-rule:nonzero;fill:#b3404a;fill-opacity:1;" d="M 264.363281 559.109375 L 293.027344 530.445312 L 321.695312 559.109375 L 334.003906 546.800781 L 305.339844 518.136719 L 334.003906 489.46875 L 321.695312 477.160156 L 293.027344 505.828125 L 264.363281 477.160156 L 252.054688 489.46875 L 280.71875 518.136719 L 252.054688 546.800781 Z M 264.363281 559.109375 "/><path style=" stroke:none;fill-rule:nonzero;fill:#b3404a;fill-opacity:1;" d="M 368.824219 559.109375 L 397.492188 530.445312 L 426.15625 559.109375 L 438.46875 546.800781 L 409.800781 518.136719 L 438.46875 489.46875 L 426.15625 477.160156 L 397.492188 505.828125 L 368.824219 477.160156 L 356.515625 489.46875 L 385.183594 518.136719 L 356.515625 546.800781 Z M 368.824219 559.109375 "/><path style=" stroke:none;fill-rule:nonzero;fill:#b3404a;fill-opacity:1;" d="M 159.898438 559.109375 L 188.566406 530.445312 L 217.234375 559.109375 L 229.542969 546.800781 L 200.875 518.136719 L 229.542969 489.46875 L 217.234375 477.160156 L 188.566406 505.828125 L 159.898438 477.160156 L 147.589844 489.46875 L 176.257812 518.136719 L 147.589844 546.800781 Z M 159.898438 559.109375 "/></g></svg>